<svg xmlns="http://www.w3.org/2000/svg" viewBox="0 0 800 560" fill="none">
  <defs>
    <linearGradient id="sky" x1="0" y1="0" x2="0" y2="560" gradientUnits="userSpaceOnUse">
      <stop stop-color="#BAE6FD"/><stop offset="1" stop-color="#E0F2FE"/>
    </linearGradient>
    <linearGradient id="facade" x1="0" y1="0" x2="800" y2="0" gradientUnits="userSpaceOnUse">
      <stop stop-color="#0F9FA8"/><stop offset="1" stop-color="#0F9FA8" stop-opacity="0.75"/>
    </linearGradient>
  </defs>
  <rect width="800" height="560" fill="url(#sky)"/>
  <ellipse cx="680" cy="90" rx="70" ry="70" fill="#FDE68A" opacity="0.85"/>
  <rect x="0" y="420" width="800" height="140" fill="#86EFAC" opacity="0.55"/>
  <rect x="120" y="180" width="560" height="280" rx="12" fill="url(#facade)"/>
  <rect x="170" y="230" width="56" height="44" rx="4" fill="white" fill-opacity="0.82"/><rect x="290" y="230" width="56" height="44" rx="4" fill="white" fill-opacity="0.82"/><rect x="410" y="230" width="56" height="44" rx="4" fill="white" fill-opacity="0.82"/><rect x="530" y="230" width="56" height="44" rx="4" fill="white" fill-opacity="0.82"/><rect x="170" y="300" width="56" height="44" rx="4" fill="white" fill-opacity="0.82"/><rect x="290" y="300" width="56" height="44" rx="4" fill="white" fill-opacity="0.82"/><rect x="410" y="300" width="56" height="44" rx="4" fill="white" fill-opacity="0.82"/><rect x="530" y="300" width="56" height="44" rx="4" fill="white" fill-opacity="0.82"/><rect x="170" y="370" width="56" height="44" rx="4" fill="white" fill-opacity="0.82"/><rect x="290" y="370" width="56" height="44" rx="4" fill="white" fill-opacity="0.82"/><rect x="410" y="370" width="56" height="44" rx="4" fill="white" fill-opacity="0.82"/><rect x="530" y="370" width="56" height="44" rx="4" fill="white" fill-opacity="0.82"/>
  <rect x="340" y="360" width="120" height="100" rx="6" fill="white" fill-opacity="0.9"/>
  <text x="400" y="520" text-anchor="middle" font-family="system-ui,sans-serif" font-size="22" font-weight="600" fill="#0F172A">DV Jarun</text>
</svg>